<?xml version="1.0" encoding="iso-8859-1"?>
<!-- Uploaded to: SVG Repo, www.svgrepo.com, Generator: SVG Repo Mixer Tools -->
<svg height="800px" width="800px" version="1.1" id="Layer_1" xmlns="http://www.w3.org/2000/svg" xmlns:xlink="http://www.w3.org/1999/xlink" 
	 viewBox="0 0 400 400" xml:space="preserve">
<g id="XMLID_1678_">
	<path id="XMLID_1679_" style="fill:#CCF8F3;" d="M340,120c-26.365-21.521-85.826-50-140-50S86.365,98.479,60,120l22,70h18v140
		l70,70h30h30l70-70V190h18L340,120z"/>
	<path id="XMLID_1680_" style="fill:#00D7DF;" d="M60,120l22,70h18v140l70,70h30V190v-50V70C145.826,70,86.365,98.479,60,120z"/>
	<circle id="XMLID_1681_" style="fill:#FFFFFF;" cx="200" cy="70" r="70"/>
	<path id="XMLID_1682_" style="fill:#EA348B;" d="M224.702,218.594c-8.531-2.133-17.428,0.844-24.701,7.31L200,225.902l-0.001,0.001
		c-7.273-6.466-16.17-9.442-24.701-7.31c-16.074,4.018-24.761,24.649-19.403,46.082c5.358,21.432,22.733,35.547,38.806,31.529
		c1.871-0.469,3.639-1.17,5.299-2.064l0.001,0.001l0.001-0.001c1.66,0.894,3.428,1.595,5.299,2.064
		c16.073,4.018,33.447-10.098,38.806-31.529C249.463,243.243,240.776,222.611,224.702,218.594z"/>
	<path id="XMLID_1683_" style="fill:#AF2768;" d="M200,225.902l-0.001,0.001c-7.273-6.466-16.17-9.442-24.701-7.31
		c-16.074,4.018-24.761,24.649-19.403,46.082c5.358,21.432,22.733,35.547,38.806,31.529c1.871-0.469,3.639-1.17,5.299-2.064
		l0.001,0.001L200,225.902L200,225.902z"/>
	<path id="XMLID_2_" style="fill:#00A0A6;" d="M235.364,190.566c0,0,3.182,18.031-7.071,28.283
		c-10.253,10.254-28.284,7.072-28.284,7.072s-3.535-17.678,7.071-28.285C217.686,187.03,235.364,190.566,235.364,190.566z"/>
</g>
</svg>