<?xml version="1.0" encoding="iso-8859-1"?>
<!-- Uploaded to: SVG Repo, www.svgrepo.com, Generator: SVG Repo Mixer Tools -->
<svg version="1.1" id="Layer_1" xmlns="http://www.w3.org/2000/svg" xmlns:xlink="http://www.w3.org/1999/xlink" 
	 viewBox="0 0 512 512" xml:space="preserve">
<path style="fill:#3D7A94;" d="M23.79,164.86v86.474l24.675,62.126L23.79,375.585v23.554c0,27.937,22.646,50.583,50.583,50.583
	h361.484c27.937,0,50.583-22.646,50.583-50.583V164.86H23.79z"/>
<path style="fill:#0E4675;" d="M74.373,425.048c-14.285,0-25.908-11.622-25.908-25.908v-73.782L256,251.333h205.766V399.14
	c0,14.287-11.623,25.908-25.908,25.908L74.373,425.048L74.373,425.048z"/>
<g>
	<rect x="23.79" y="251.336" style="fill:#6BADB4;" width="232.214" height="124.249"/>
	<polygon style="fill:#6BADB4;" points="499.663,132.981 499.663,178 12.337,178 12.337,132.981 256,95.969 	"/>
</g>
<rect x="12.337" y="62.278" style="fill:#0E4675;" width="487.325" height="70.705"/>
<path style="fill:#000030;" d="M499.663,49.936H12.337C5.523,49.936,0,55.459,0,62.273v115.728c0,6.515,5.055,11.838,11.453,12.293
	v61.044V375.59v23.553c0,34.695,28.227,62.921,62.92,62.921h361.484c34.694,0,62.92-28.225,62.92-62.921V190.338h0.885
	c6.813,0,12.337-5.523,12.337-12.337V62.273C512,55.459,506.475,49.936,499.663,49.936z M487.325,74.611v46.037h-62.921
	c-6.813,0-12.337,5.523-12.337,12.337s5.525,12.337,12.337,12.337h62.921v19.584c-0.294-0.021-0.586-0.044-0.885-0.044
	c-1.53,0-2.988,0.291-4.34,0.801H28.13c-1.088-0.41-2.247-0.67-3.456-0.756v-19.584h342.978c6.813,0,12.337-5.523,12.337-12.337
	s-5.525-12.337-12.337-12.337H24.675V74.611H487.325z M36.127,263.674h207.536v99.577H36.127V263.674z M474.103,399.142
	c0,21.088-17.156,38.246-38.246,38.246H74.373c-21.089,0-38.246-17.158-38.246-38.246v-11.216h219.874
	c6.813,0,12.337-5.523,12.337-12.337V251.337c0-6.814-5.525-12.337-12.337-12.337H36.127v-48.661h437.976V399.142z"/>
</svg>