<svg class="svg-icon" style="width: 1em; height: 1em;vertical-align: middle;fill: currentColor;overflow: hidden;" viewBox="0 0 1024 1024" version="1.1" xmlns="http://www.w3.org/2000/svg"><path d="M500.140288 0C294.657621 0 221.441621 130.730667 221.441621 253.098667a34.133333 34.133333 0 1 0 68.266667 0c0-55.125333 20.48-183.296 210.432-183.296 124.586667 0 258.389333 140.8 258.389333 368.298666 0 113.152-49.493333 169.813333-106.837333 235.52l-5.632 6.314667a929.792 929.792 0 0 0-62.805333 76.970667c-9.728 13.994667-18.090667 26.453333-26.282667 38.912l-2.218667 2.730666c-73.898667 110.592-110.250667 155.648-173.056 155.648-94.890667 0-116.053333-99.498667-116.736-102.4a32.938667 32.938667 0 0 0-34.133333-27.818666H223.660288a36.010667 36.010667 0 0 0-20.309333 13.312 30.549333 30.549333 0 0 0-7.168 27.818666C208.812288 928.938667 268.204288 1024 380.673621 1024c107.178667 0 161.792-82.602667 230.570667-186.538667 8.021333-10.922667 14.677333-21.162667 20.48-30.378666l8.192-12.629334a619.690667 619.690667 0 0 1 60.074667-72.533333l1.365333-1.365333c59.733333-67.072 127.317333-143.018667 127.317333-283.989334C828.673621 166.912 658.177621 0 500.140288 0z" fill="#5A89ED" /><path d="M514.646955 648.533333l-2.730667-2.048a28.16 28.16 0 0 0-38.570667 7.850667l-6.656 9.216c-57.173333 82.944-78.677333 102.4-86.186666 103.594667-2.730667 0-10.24-10.752-14.677334-29.013334a28.672 28.672 0 0 0-28.330666-23.210666h-2.730667a26.282667 26.282667 0 0 0-19.114667 9.386666 26.794667 26.794667 0 0 0-6.826666 20.48v2.389334c6.144 36.522667 30.72 75.946667 70.144 75.946666s77.824-51.2 131.242666-127.829333l6.826667-6.997333a26.794667 26.794667 0 0 0 6.826667-20.48v-4.437334a35.328 35.328 0 0 0-9.216-14.848zM615.510955 228.522667a158.378667 158.378667 0 0 0-116.224-51.2c-147.285333 0-199.68 155.477333-199.68 288.597333V494.933333h28.672a40.448 40.448 0 0 1 45.738666 45.909334c0 29.866667-33.109333 43.178667-45.738666 43.178666a28.672 28.672 0 1 0 0 57.173334c43.178667 0 102.4-34.133333 102.4-98.986667a97.792 97.792 0 0 0-74.069334-99.84c5.802667-101.376 45.738667-205.994667 141.994667-205.994667a102.4 102.4 0 0 1 74.581333 34.133334c44.544 44.885333 65.877333 128.853333 60.757334 235.690666a28.330667 28.330667 0 0 0 28.672 27.306667h2.048a28.16 28.16 0 0 0 26.624-26.453333c6.485333-155.818667-37.546667-237.226667-75.776-278.528z" fill="#F8B62D" /></svg>